<svg xmlns="http://www.w3.org/2000/svg" xml:space="preserve" viewBox="0 0 820 820"><path fill="#FF6A00" d="M371 821H1V1h820v820zm-45-261c15-9 31-9 46-1l8 3c33 12 66 15 100 6 27-7 50-19 69-40 24-28 34-61 35-97V270l-2-15c-3-13-10-20-22-23s-25-3-37 0c-11 3-20 10-22 22-2 6-3 13-3 20v67l-1 89c-1 16-5 32-16 44-16 16-37 19-58 14-21-6-33-20-38-40-2-9-3-19-3-29v-95l-2-22c-4-18-16-30-30-39-45-31-95-42-149-29-42 9-76 32-100 68-24 35-33 74-30 117a168 168 0 0 0 167 160c31 1 60-6 88-19m385-46V273l-2-19c-3-12-11-19-23-22s-25-3-38 0c-10 3-18 10-20 20l-3 20a72982 72982 0 0 0 2 270c3 13 11 21 25 24 10 3 21 3 32 0 14-3 23-11 25-25 2-9 1-18 2-28"/><path fill="#FFFEFE" d="M326 560c-28 13-57 20-88 19A170 170 0 0 1 71 419c-3-43 6-82 30-117 24-36 58-59 100-68 54-13 104-2 149 29 14 9 26 21 30 39l2 22v95c0 10 1 20 3 29 5 20 17 34 38 40 21 5 42 2 58-14 11-12 15-28 16-44l1-89v-67c0-7 1-14 3-20 2-12 11-19 22-22 12-3 25-3 37 0s19 10 22 23l2 15v161c-1 36-11 69-35 97-19 21-42 33-69 40-34 9-67 6-100-6l-8-3c-15-8-31-8-46 1m-31-180-1-31c-1-15-9-25-23-30-31-12-63-4-85 19a96 96 0 0 0-5 126c24 30 65 39 98 22 13-7 18-18 18-32l-2-74"/><path fill="#FFFEFD" d="M711 514c-1 9 0 18-2 27-2 14-11 22-25 25-11 3-22 3-32 0-14-3-22-11-25-24l-2-18V272l3-20c2-10 10-17 20-20 13-3 26-3 38 0s20 10 23 22l2 19v241"/><path fill="#FF6B02" d="m295 380 2 74c0 14-5 25-18 32-33 17-74 8-98-22a96 96 0 0 1 5-126c22-23 54-31 85-19 14 5 22 15 23 30l1 31"/></svg>