<svg xmlns="http://www.w3.org/2000/svg" xml:space="preserve" width="1791.1" height="102.4" viewBox="0 0 1791 102"><path d="M1499 28h-12v18h12v54h33V46h18V28h-18c3-12 13-6 20-9V1c-29 0-49-6-53 27Zm66 0h-12v18h12v54h33V46h18V28h-18c3-12 13-6 20-9V0c-26 0-51-4-53 28zM754 5v95h33V60c0-16 22-17 23-1v41h33V51c-2-29-41-31-56-15V5ZM129 5l-16 55L99 5H68L53 60 38 5H0l30 95h40l13-52 14 52h40l16-50 14-45zm45 0v95l33-1V61c0-18 23-18 23 0v39h33V52c-1-30-39-33-56-16V5Zm207 4v19h-13v18h13v28c1 27 20 29 53 26V78c-5 0-20 2-20-5V46h20V28h-20V9Zm806 0v19h-13v18h13c-1 48 4 54 53 54V78c-7 1-19 0-19-4V46h19V28h-20V9Zm-103 17c-47 1-57 49-29 67 20 12 68 16 77-18h-28c-3 0-12 12-25 5-4-2-7-5-7-10h61c2-45-49-44-49-44zm-423 0c-47 1-56 50-28 68 25 16 70 9 76-19h-30c-9 11-27 9-31-5h62c2-45-44-45-49-44Zm1004 0c-70 0-54 93 25 73 12-3 20-11 23-24h-25c-3 0-5 0-8 3-7 7-25 6-27-8h61c2-32-22-45-49-44zm-259 70c19 8 39 9 58 0 27-12 24-50 5-61 0 0-12-9-31-9-64 0-60 57-32 70zm-134-66a36 36 0 0 0-6 65c30 14 79 8 79-31 0-41-48-42-73-34zm-953-4c-26-1-43 9-43 24h26c7 0-4-7 18-6 7 0 9 4 9 11-22 0-58-2-57 26 1 23 37 26 57 12v7h33V51c-1-17-14-23-43-25zm536 24h26l4-2c4-6 17-5 22 1l1 6c-31 0-58-1-57 26 1 23 38 27 57 12v7h33V51c1-31-82-37-86-1zm926-24c-10 0-19 3-26 13V28h-33v72h33l1-37c1-10 7-15 35-9V27l-10-1zm-837 1 33 72h30l34-71h-34l-14 39-15-39-34-1Zm-412 1-13 35-11-35h-34l30 72h28l13-36c5 10 10 25 13 35h31l16-42 12-29h-34l-11 35c-4-6-13-35-14-35h-26zm1151 27-30 1c2-11 22-16 30-1zm-581 1h-30c2-11 23-16 30 0zm-423 0h-30c4-14 26-13 30 0zm618-9c17 0 20 20 11 30-29 18-40-30-11-30zm139 0c27 4 16 43-8 33-12-5-15-32 8-33zM908 72v6c-5 10-26 11-26 1 3-8 18-7 26-7zm-579 0c2 12-10 14-19 14-8-1-10-11-1-13 6-2 13-1 20-1z" style="fill:#000;fill-opacity:1"/>Z</svg>