<svg xmlns="http://www.w3.org/2000/svg" xml:space="preserve" width="1922" height="424.8" viewBox="0 0 1922 425"><defs><filter id="a" width="1.9" height="3.6" x="-.5" y="-1.3" style="color-interpolation-filters:sRGB"><feFlood flood-color="#FF6A00" flood-opacity=".5" result="flood"/><feGaussianBlur in="SourceGraphic" result="blur" stdDeviation="63.8"/><feOffset in="blur" result="offset"/><feComposite in="offset" in2="flood" operator="in" result="comp1"/><feComposite in="SourceGraphic" in2="comp1" result="comp2"/></filter></defs><path d="M1710 144c-4 0-8 2-12 4-5 5-5 11-3 16 1 7 7 9 13 10s14-2 17-7 3-12-3-18c-3-3-8-5-12-5zm-685 0-4 1c-12 4-14 17-7 24 7 8 19 7 27-1 5-9 3-16-3-20-4-3-8-4-13-4zm459 9v98h33v-98ZM0 157v24h34v70h37v-70h34v-24zm117 0c-4 0-5 1-5 5v86l1 3h32v-41c0-6 4-10 11-10s11 3 11 10v41h33v-36l-1-16c-2-7-5-14-12-17-15-7-29-5-42 6v-31zm657 0v29c-10-7-20-9-31-7-22 4-31 20-31 38 1 12 5 22 15 29 16 9 31 10 47-1v6h33v-94zm858 5v18h-13v18h13l1 33c1 8 5 16 14 18 12 3 24 3 37 2v-21l-18-2-2-30h20v-18h-19v-14c0-2-2-4-3-4zm-544 15-11 2c-9 2-17 5-22 13l-5 16c-1 15 2 26 15 33 15 8 30 9 45 0 2 9 1 13-7 14-7 1-16 4-22-3l-3-1h-24c-2 0-3 1-2 4 1 8 7 14 15 16l25 4 28-2c10-2 20-6 22-18 2-4 2-9 2-13v-49c0-13 0-13-14-13h-19v3l-1 2c-7-5-15-8-22-8zm-135 1c-10 0-21 2-30 7-10 6-13 17-7 28 4 6 11 7 17 8l32 5c3 0 5 2 5 4-1 2-4 4-7 5h-9c-6 0-9-2-11-7h-33c1 10 6 17 15 20l18 4h29c7-2 15-3 21-6 8-3 12-10 11-19s-5-15-14-17l-21-4-22-3-3-2 2-4c6-3 17-1 22 4l1 1h30c1-8-3-13-9-16-8-5-17-7-26-8zm-697 0-21 3c-7 3-14 6-19 12-6 8-8 17-7 28 2 13 10 22 22 27 11 4 22 6 33 4 9-1 17-3 24-8 5-5 9-11 10-18h-23c-4 0-6 0-9 3-4 5-10 5-16 4-6-2-9-6-11-12h61c1-13-5-25-12-31-10-8-21-12-32-12zm1174 0-21 3c-8 2-16 6-21 14-4 4-5 10-6 16-2 9 1 18 6 25 8 12 19 16 32 16h22l3-1c15-2 25-10 29-25 3-8 3-17-1-24-2-5-5-11-9-14-11-7-22-10-34-10zm-104 0-16 1c-7 2-15 5-20 11-7 7-7 24 5 28l21 5 21 3c3 0 6 1 5 5-1 2-4 3-7 4h-10c-5 0-9-2-9-7h-34c2 12 6 17 15 21 5 1 11 3 17 3h31c9-1 18-2 25-10 8-9 7-29-8-32l-30-5-14-2-2-3 1-2c4-3 18-3 20 1 3 4 7 3 11 3h23c-1-10-3-13-11-17-11-5-22-7-34-7zm-465 0-10 1c-11 2-22 6-29 15-6 8-8 17-6 27 2 14 10 22 23 28 10 3 21 5 32 3 9-1 17-3 24-8 5-5 9-10 10-18h-23c-3-1-6 0-9 3-5 5-11 5-17 3-6-1-8-6-10-11h61l-1-10c-1-14-10-23-22-28-8-3-15-5-23-5zm919 0c-8 0-17 2-25 5-5 1-10 6-14 10-7 8-9 18-7 29s7 20 17 25c16 7 32 7 48 4 8-2 15-5 20-11 9-12 11-24 6-38-2-7-7-13-13-16-10-6-21-8-32-8zm112 1-11 2-13 7v-8h-32v71h32v-39c0-6 2-9 8-11 7-3 15 3 15 10v40h31v-51c0-7-5-13-11-17-6-3-12-4-19-4zm-682 0-9 2c-6 1-10 5-15 7v-8h-33v71h33v-40c0-6 3-9 10-11 4-1 10 2 11 7l1 11v33h33v-44c0-7-1-14-7-20-7-6-16-9-24-8zm316 1c-2 0-2 2-2 4v40c0 8 2 15 7 21 6 7 14 8 22 8 9 0 18-2 26-10v8h33v-71h-33v40c0 5-2 9-7 10-10 3-15-1-15-12v-38zm-512 0c-4 0-3 2-3 4v48l-1 19h34v-68c0-3-1-3-3-3zm680 0v69l1 2h32v-71ZM253 198c5-1 11 1 15 5l2 4h-30c2-6 7-9 13-9zm610 0c7 0 11 3 13 9h-30c2-6 7-8 13-9zm918 1 8 1c6 3 8 8 8 14 0 7-1 14-8 17-8 3-17 2-23-5-4-10-2-20 3-23 4-3 8-4 12-4zm-1022 0c9 0 15 3 17 8 2 9 1 17-5 22-4 3-9 3-15 3-10-2-13-10-12-21 1-6 5-12 15-12zm668 0 9 1c9 4 10 11 9 19-1 6-4 11-11 12-7 2-14 2-19-4-4-6-4-13-1-20 2-6 7-8 13-8zm-328 0 7 2c6 2 9 8 8 15-1 6-5 10-12 11h-11c-6-2-11-7-10-16 2-8 10-12 18-12z"/><path d="M385 153c-7 0-15 1-22 4-10 5-10 14-11 23h-11v18h11v53h32v-53h18v-18h-18c2-12 12-6 19-9v-17zm145 25-17 2c-8 2-16 6-22 13-6 8-8 17-7 27 2 14 9 23 22 28 11 5 23 5 35 4 9-2 18-4 25-12 3-4 6-8 6-14h-26l-4 2c-4 7-18 6-22 3l-6-8 2-2h58l-1-10c-2-14-9-23-21-28-7-3-15-5-22-5zm95 0-9 1c-12 2-22 6-30 16a37 37 0 0 0 3 43c7 8 17 12 27 14h19c9 0 17-3 24-8 5-5 9-10 10-18h-22c-4 0-6 1-9 3-5 5-11 5-17 3-6-1-9-5-10-11h60l-1-10c-2-14-9-23-21-28a54 54 0 0 0-24-5zm-158 0c-10 0-19 5-25 13v-11h-32v70h32v-31c0-11 5-16 16-16l19 1v-24zm159 19c5 0 9 1 12 5l4 6h-31c1-7 6-9 11-11zm-99 0c9 0 16 3 17 11h-30c1-6 6-10 13-11zm136 63-317 2 69 6h57l8 1h15c23 2-3 1 19 2h50l48-6h22z" style="fill:#ff6a00;fill-opacity:1;filter:url(#a)"/></svg>