<svg xmlns="http://www.w3.org/2000/svg" xml:space="preserve" width="3101.2" height="355.1" viewBox="0 0 3101 355"><path d="M901 0c-48-1-55 80 15 74 59 2 44-80 6-73l-17-1h-4Zm1212 15v276h84V168c0-53 78-57 77 2v121h84c1-53 2-98-1-152-10-84-126-72-160-52V15ZM-6 15v55H95v221h89V70h101V15h-7zm1007 11c-6 4 0 2-3 53h-38v48h38c1 37-2 75 3 113 13 61 91 58 142 51v-51c-2 0-57-5-60-27v-87h60V79h-60l-1-53h-81zm840 0v53h-38v48h38c1 36-3 73 2 110 8 64 89 61 142 54v-50c-30-1-58 8-60-32 1-28-1-55 1-83h59V79h-58c-2-8-2-42-2-53zm-453 47c-66-2-133 34-129 121 5 105 122 104 146 103 42 0 84-16 106-47 41-60 19-180-114-177h-9zM382 92V79h-85v212h85V191c0-36 23-55 52-58 8 0 15 1 22 4 11 3 28 1 32 2V93l87 184c-1 25-18 50-30 78h84L752 79h-84c-3 0-3 1-4 4l-46 112-47-112c-2-3-7-4-7-4h-76v-3l-40-2c-24-2-47 3-66 18Zm2459 111c16 127 231 121 255 15h-74c-3 0-4 1-6 3-39 48-89 16-98-17h183c-8-196-280-164-260-1ZM2508 74c-188-15-174 235 5 221 48 0 100-21 117-77h-65c-14-1-12 3-19 10-32 38-85 12-93-24h183c-5-124-91-128-127-130h-1zm228 19V79h-84v212h84V187c3-48 55-61 88-48h19V79c-1-1-68-17-107 14zM868 79v212h84V79Zm838 0v124c0 48-76 58-76-3V79h-85v135c0 93 119 95 161 68v9h84V79Zm-314 42c38 6 72 45 50 93-8 20-27 32-49 34-66-9-63-88-31-114 9-7 19-11 30-13zm1628 37h-99c18-41 76-48 99 0zm-465 0h-100c25-49 85-42 100 0z" style="fill:#000;fill-opacity:1"/></svg>