<svg xmlns="http://www.w3.org/2000/svg" xml:space="preserve" viewBox="0 0 1600 900"><path fill="#919191" d="M854 132q-3-1-4 4l-13 47-11 40-25-6c-4-2-6-1-7 4l-7 25-1 4v1h4l1-3 8-27 26 7h4l8-26 9-34 1-4v4l23 6 34 8-16 59v3l3 1h1v-1 1l26 8-7 26-25-7v-4l5-22-3-2-8 28c-1 3 1 4 4 5l26 7-7 24c-1 6-1 6 5 8l24 7a7 7 0 0 0 1-3v-1l-26-8 8-26v-5 5l26 7-8 26 1 1 4 1 7-27c1-3 0-5-3-6a578 578 0 0 1-21-5l-5-3 7-25c0-2 0-5-3-5l-27-7-1 2 1-2v-3l23-86c1-3 1-5-3-6l-56-15h-3m-25 96h-4l-5 22c-1 3-3 5-6 3l-23-5-1 3 1 1 25 6c2 1 5 2 6-1l7-29m25-92 58 16-7 26-1 2v-2l-52-14-5-2zm-95 103c-1-1-3 0-4 2l-7 29h5-5a928 928 0 0 0-10 36l-7 29 3 1h1v-2 2l26 7-7 27-27-7 7-27a6 6 0 0 0-3-1 172 172 0 0 0-8 31l4 2 25 6a18 18 0 0 0 2-4 12 12 0 0 0 4 1l7-26c1-4 0-5-4-6l-25-7 16-60-1 2 26 7c4 1 6 0 6-3l7-26v-1a8 8 0 0 0-4 0l-7 26-26-7 6-27 27 7a7 7 0 0 0 1-4l-26-7zm-5 132-1 4-7 25-26-6h-4a397 397 0 0 0-8 30h3l7-26 26 7h1-1l-6 23-2 3v6l-5 21c-1 4-3 5-6 4a278 278 0 0 0-23-6l8-27 1-3-1 3 26 7a23 23 0 0 0 0-5 308 308 0 0 0-25-6v-1h-4a26 26 0 0 0-2 5l-7 25-1 4-7 26v1l-26-7h-5l-8 31h4l7-27 27 7 1-3-1 3v1h3a575 575 0 0 0 8-25l1-5 1-2v2l19 5c8 2 7 2 5 9l-4 21h4l6-27 27 7 1-2v-2l-23-6c-3-1-3-3-2-5l6-25h-1 1l7-30h-3 4a555 555 0 0 0 8-34h-3m6 102-1 2-7 27-26-7h-5l-8 31h4l-1 4 2 1 24 6h5a408 408 0 0 0 7-30h-3l-7 26-27-7 7-27 27 7v-1 2h3l10-31c1-3 0-5-4-3m-43 53a7 7 0 0 0-4 0l-8 28c-1 4 0 6 4 7l63 17 55 14c1 1 5 0 5-1l8-32-3-1-2 4-7 26-26-7-5-1-57-15-2-1h2l7-27-5 1-6 26v-1l-27-7a717 717 0 0 1 7-26zm-1 4v2l2-1-2-1m81 50 5 1 6-26-3-2a631 631 0 0 0-8 27m38-18 1-4v-1l-26-6 6-27-3-2a55 55 0 0 0-2 7l-6 24 3 2 27 7m-143-72h-3l-7 26-27-7-1 5 26 6 5-2a407 407 0 0 0 7-28m-37 19h-4l-9 30v3l3 1-4-1-2 9-5 18-26-6h-1a12 12 0 0 0 0 4l26 7h4a431 431 0 0 0 8-31l9-29zm-14 33 1-3-25-7c-4-1-6-1-7 3l-7 28h5a621 621 0 0 0 6-27l26 6zm-36 21h-2a783 783 0 0 0-9 34l-7 25v1l-1-1h-1a682 682 0 0 0-24-6l6-24 3-2 23 7a11 11 0 0 0 1-5l-24-7c-3 0-6-1-7 3l-7 28h5-5a403 403 0 0 0-8 31h4l7-27 26 8 1-1v-4 4l3 1 9-30 1-3v-2l8-26v-4zm-6 32v3l25 6c2 1 5 0 6-1a370 370 0 0 0 7-29h-4l-6 22-3 4-24-7zm-10 33h-4l-7 26-26-7h-4l-17 60c-1 4 1 6 4 7a2919 2919 0 0 1 55 14c5 2 7 1 8-4l7-25v-1 1l24 7c4 1 7 0 8-4l7-28-5 1-6 23c-1 4-3 3-6 2a318 318 0 0 0-21-5l-1 2 1-2 7-26h1l-1-1 1 1a812 812 0 0 0 30 5l4-13a204 204 0 0 0 3-16h-3l-6 20-2 6-25-7h-1l-1 1 1-1-3-1 3 1 7-27a807 807 0 0 0 27 7v-4l-25-7-6 2-7 28h1l-9 30-2 4-6 25-1 2-26-7-4-1a7 7 0 0 0 4 1l5-21c1-5 3-6 7-4l21 5 1-4-21-5c-4-1-5-3-4-7a435 435 0 0 0 5-22h-4a577 577 0 0 0-6 23c0 2-2 3-4 2l-23-6 7-27v-2 2l26 7 4 1a804 804 0 0 0 8-31m59 16v1l3-1a685 685 0 0 0 10-29l180 48-7 31 3 1 1-3-1 3 27 7a422 422 0 0 0-7 26 8 8 0 0 0 4 2l7-26c1-3 1-6-4-7l-26-6 7-27c1-3 0-5-3-6l-180-48c-4-1-5 0-6 4l-7 25zm165-357q-3 0-4 4l-15 56c-2 3-1 5 2 5l58 16c3 1 4 0 5-3l16-57c1-3 0-5-3-6l-57-15zm1 4 49 14 7 2-15 57-26-7-4-1a695 695 0 0 0-27-8l7-25 1-4 7-26v-1h1zm0 1zm-8 26a14 14 0 0 0 0 4l21 6c3 1 4 2 3 5a289 289 0 0 0-5 23h4l6-25c1-3 2-5-2-6l-27-7m129 2h-1l-1 3-7 26-1 2v-2l-26-6q-4-2-5 2l-7 28h4l5-23c1-3 3-3 5-2a337 337 0 0 0 24 5l-8 27-1 5 1-4-26-7-4-1-9 31h2l-2 1q-5 16-8 33c4 3 3-2 4-3l7-26 1-5-1 5 26 7 6-2 7-29h-3 3l7-26 10-39h-2m-212 46-8 27h5l7-25a8 8 0 0 0-4-2m166 12 24 6 2 4-2 8-4 15-27-7zm-109 32-4 2-7 29h4l6-23c1-1 3-3 5-2l50 13c3 1 3 2 2 5a320 320 0 0 0-5 22q1 2 3 2l7-27c1-2 1-4-2-5a3777 3777 0 0 0-59-16m94 25c-2 1 0 6-5 3a814 814 0 0 0-8 31l2 1-2-1a754 754 0 0 0-8 26q-1 5 4 7a77 77 0 0 1 10 2l15 5a589 589 0 0 0-7 30l3 1h1v-3 3l42 11a7 7 0 0 0 2-3l-38-11-5-2a1102 1102 0 0 0 16-60l-1-1 1 1 7-26c2-4 1-6-4-7l-25-7m2 5 23 7-3 12-4 14-26-7 6-24 4-2m-105 1h-2a612 612 0 0 0-9 29v2c4-1 5 1 4 4l56 16c2-1 1-6 6-3l8-31-3-1-58-16zm3 6 8 1 47 13-6 22c0 3-1 5-5 4l-53-15 4-16c2-7 2-9 5-9m-104 0q-3 0-4 4l-7 27h5l6-24c0-1 3-2 5-1l22 5 1-4-25-7h-3m195 24 25 6 2-2-1 2-7 27-1 3v-3l-21-6c-4-1-5-2-4-6l5-16 2-5m-42 17c-2 0-1 3-2 4l-8 30 3 2h1l1-4 7-31-2-1m-5 32-1 4 26 7-7 26v1l4 1a567 567 0 0 0 7-27c1-2 1-4-2-5zm129 1c-2 0-2 2-3 6a699 699 0 0 0-7 24v1h2l-2 1 3 4 26 7c4 1 6 0 7-4l6-26 27 7-6 24-9 34-25-6c-5-2-6-2-8 4l-6 24a11 11 0 0 0 4 2l7-27 27 7-7 27-26-7-2 3v1l-1-1h-4l-6 24c0 1-3 2-4 1l-23-5a6 6 0 0 0-1 4l25 7c4 1 6 0 7-4l7-26h1l23 6c7 2 7 2 9-5l6-24 26 7c2 1 5 2 6-2l9-34q-3-5 2-9l3-8-2-2 2 2v-4l-2 2 2-2c2-4 3-8-2-9-3 4-4 0-7-1 2 1 4 5 7 1a35 35 0 0 0-7-1l-4-2-2 2 2-2-11-2 1 1-1-2-5-1-1 4v-4l-33-9-2 4-7 26-26-7h-2 2a564 564 0 0 0 6-22c0-3 1-4 4-3l23 6a8 8 0 0 0 2-4l-25-7-5-1m-71 18a487 487 0 0 0-9 28l3 4 59 16c2 1 4-1 4-4l7-26-3-4v-2l-5-1q-1 2-2 1 1 1 2-1l-6-1 3 2-3-2-3-1-1 3a182 182 0 0 0 14 5l-7 26-57-15 6-26a6 6 0 0 0-2-2m137 4h1l23 7-4 17-11 41-27-7 4-15 11-40q0-3 3-3m-84 8h1zm108 15q-4 4-2 9a53 53 0 0 0 2-9m-144 40-4 3a2992 2992 0 0 0-16 59l3 4 27 7-7 31h1-2l-7 31 2 1 28 7v-4a386 386 0 0 0-21-6c-4-1-5-2-4-6l6-21v-1l2-4 1-6 14-51 1-4 7-25 1-1-1 1a3 3 0 0 0 2-1l24 6h5l2-2-5-2-24-7h-6l-2 1 1-2a462 462 0 0 0-28-8m6 106 27 6a579 579 0 0 0-7 27 7 7 0 0 0 4 2l7-26c1-4 0-6-4-7l-25-7-2 4zm-4-101 3 1a304 304 0 0 0 22 5 3731 3731 0 0 1-16 58v2-2l-22-6c-3 0-4-2-3-5l13-49c0-3 1-4 3-4m-352 70v2l22 5c3 1 4 2 3 5l-5 23-28-7 7-26zm290 13-8 30 4 2 26 7 1-4-26-8 7-25v-1zm-8 30-7 28q-2 4 2 5l5 1 22 6 1-5-26-6 7-26a10 10 0 0 0-4-3m32 5h-1l-1 4-7 26-1 6-7 24c-1 4-1 6 4 7a1983 1983 0 0 1 56 15c4 2 6 0 7-3l4-18 11-43-3-2h-1v4l-16 58-26-7-4-1-28-7 16-62a8 8 0 0 0-3-1m15 70a8 8 0 0 0 4 0l7-28 7-29-3-1-2 6-8 30a382 382 0 0 0-5 22"/></svg>