<svg xmlns="http://www.w3.org/2000/svg" xml:space="preserve" viewBox="0 0 1600 900"><path fill="#919191" d="m742 119-5 1c-2 4-5 3-9 3h-11l-5 1c-1 4-3 3-6 3-7-2-13 6-20 5h-1c-5 5-12 3-17 7l-6 3c-8 0-14 5-20 8-3 1-7-1-7 5-7 0-19 7-21 12-6-1-9 4-12 8-3 0-6-1-8 4 0 1-3 6-8 4l-1 1-13 12-14 15a1235 1235 0 0 1-15 15l-5 5-11 9c-3 4-4 10-8 14l-4 4c-2 3-2 8-5 8-5 2-2 5-3 8-5 3-9 6-8 13-7 0-3 5-4 8-6 0-3 5-4 8-6 0-3 5-5 7-3 7-8 12-7 20-7 2-2 8-4 12-7 2-2 8-4 12-8 4-2 11-5 17-4-1-3 2-3 5v8l-1 4-3 6v37l-1-8c-6 2-2 6-3 9l4-1 4-1v-28l1-4c4-5 3-10 3-15 0-3 2-6 3-8l1-5c0-4 0-8 3-12 2-2 1-7 1-10 7-2 2-8 5-12l3-6 1-5 4-10c5 0 3-4 3-8 6 0 4-4 4-8 6 0 4-4 5-7l12-20h-1c5-3 9-6 8-10 18-28 44-47 65-71l6-1 10-11c6 1 9-3 12-8l1 1 11-7 11-6 5-3c3-1 6-4 9-4 6-1 9-7 15-5l4-3 9-4 3-1c4 0 6 0 9-3 2-2 6 0 9-1l6-3c5-3 12 2 16-5h12c3 0 7 1 9-3l4-1h85c5 6 11 3 17 4l5 1c2 3 4 3 7 3h11v2l6 2c4 0 7 0 10 3 2 2 5 1 8 1 2 7 9 2 13 5 0 5 4 3 7 3v1l6 3 5 2 12 6h2c0 6 4 4 7 4v1l8 4 25 17c1 3 11 10 14 10l45 44-1 1 9 11c1 3 5 3 5 8 1 3 5 5 7 8l1 3a84 84 0 0 0 7 10c1 3-1 7 5 7 1 3-2 7 3 9 2 0 3 4 4 6l5 14 3 4c2 2-1 7 5 7 0 11 0 11 4 12 2 4-3 10 4 13v9l1 3c4 3 3 7 3 10 0 4 0 6 3 8l1 5c1 6-2 12 4 16v84l-2 5-2 5v17h-1l-3 6v7l-2 5-1 1-5 18-2 5-3 10-3 6v3c-6 2-4 7-4 12-6 0-3 4-4 8-6 0-3 5-4 7h-1l-9 13c-4 0-2 4-3 6l-9 14c-3 1-6 6-6 10l-8 9a22 22 0 0 1-4 3c-5 4-5 11-11 14-4 3-6 8-9 11l-10 9c-2 2-4 4-8 4l-6 6c-2 2-4 5-8 6l-14 12c-5-2-7 4-11 8-2 1-7-2-7 4-3 1-7-1-9 4-1 2-7 2-10 4l-12 7-4 1-6 3c-8 0-13 5-20 8-8 4-13-3-19-8V642c0-5 0-9-3-13l-1-9-3-6c-2-2 1-7-3-7l-6-11 10-4 8-1c4 0 9 1 12-3 2-2 6-1 9-1l6-3c3-3 10 2 12-5 6 0 22-8 23-12 6 1 9-3 12-7l7-5a191 191 0 0 0 9-9l5-7c3-3 9-5 7-12 6 0 4-4 4-8 6 0 3-4 5-7l3-6a82 82 0 0 0 3-7l1-6c0-4 0-8 3-11l1-3v-13l1-5c4-3 3-7 3-11v-28c0-5 0-9-3-13-2-3-1-8-1-12l-2-7-2-6a18 18 0 0 0-3-6c-2-2 2-7-5-7-1-3 2-8-4-8 1-7-3-9-7-12l-5-9v-10h1l3-6v-45c-5-4-4-10-4-15l-4-5c0-9-7-14-16-9-7 3-12 2-19 3l-4 1a75 75 0 0 0-5 3 16 16 0 0 0-5 3c-9 1-17 6-24 12-2 2-7-1-7 5-7-2-9 4-13 8h-6v-1l-6-3h-8c-2 0-5 1-7-3l-5-1h-27l1 4h23l4 1c3 3 6 3 9 3h10v1l6 3h5c3 0 5 1 6-3 1-2 5-3 8-5l6-4c3 1 5-1 8-4l10-5 6-3c3 0 5-2 7-3 4-2 10 2 12-5h14l2-4h4-4a14 14 0 0 0-2 4 76 76 0 0 0 10 0c0-2-1-3-2-3a5 5 0 0 1 2 3 18 18 0 0 1 3 3l2 5 2 3v9l2 4 2 3v34l-1 4c-1 2-3 3-3 5v18l11 13c2 3-1 7 5 7 0 4-2 8 4 8 0 4-2 8 3 8 3 5-2 11 5 13 1 6-3 14 4 20v36l-1 3c-4 2-3 7-3 11-1 5 2 12-3 16l-1 3v9c-7 2-2 9-5 13-5 0-3 4-3 8-6 0-4 4-5 7l-8 12-26 27-26 13c-3 2-7-1-7 5-11 0-11 0-13 4h-9l-5 2-5 2c-9-1-17 2-26 4l-2 3c-1 3 3 8 8 10 1 2-2 7 4 7 0 4-2 8 3 9 3 5-3 12 5 16v109a17 17 0 0 0 5 13l6 5h14l2-1c1-5 5-2 8-3a19 19 0 0 0 5-2l3-2 7-3c13-5 26-13 41-21 5 1 7-4 10-8 6 2 7-3 11-6 2-1 4-5 7-6 7-1 8-7 13-10 3-2 5-6 7-6 5 1 6-4 8-5 5-3 8-8 12-11l5-6 8-13 5-5c4-3 8-5 7-11 5-3 8-6 9-11 2-5 9-7 7-12 4-5 10-7 8-14 6 0 3-5 4-8 6 0 3-5 4-8 6 0 3-5 4-8l3-1 5-18c7-3 2-9 5-12l3-5c-1-9 6-16 4-25l2-2 2-7v-10l2-7 2-7v-79c0-5 1-10-3-13l-1-4v-12c0-3-2-5-3-7-3-5 3-12-5-16 1-9-4-16-7-24-3-3 2-9-5-12-1-2 2-7-3-7-4-12-10-23-16-33l-2-6c-6-3-6-11-11-15-3-4-5-9-9-13-3-2-5-6-7-9l-6-8-10-9-10-11-10-9c-4-4-6-10-13-11l-7-5c-2-3-4-7-9-7l-2-2-8-6-4-2-11-7-6-3-3-1-11-7-12-4-9-5c-2-1-3-3-5-3-6 1-11-6-18-4l-1-2-5-2h-7c-4-7-11-2-16-5l-6-3h-14l-4-1-5-3h-89m69 160 8-1c-2-6-6-2-9-3l1 4m-1-4h-45a9 9 0 0 0-2 3l1-3c-4 1-9-3-9 4h54l-6 1c2 6 6 2 9 3l-1-4-1-4m-55 4h-22l-5 3-4 1h-8l-6 3v1h-6c-2-5-6-8-10-8-12-7-22-13-35-17l-2-3c-9 0-16-7-25-4l-4-2a9 9 0 0 0-13 1c-7 9-8 11-8 22v3c-6 3-4 8-4 12v33l1 4c5 4 2 10 3 15 1 2-2 6-4 7-5 3-6 8-9 12-2 3-3 5-3 9-6 0-3 4-5 7l-3 6c0 3 0 6-3 9-2 3-1 8-1 11s1 7-3 9l-1 5v31a9 9 0 0 0 3 2l-3-1c1 4-2 9 4 9v19l3 6c3 5-2 12 5 16-1 7 4 13 7 20l3 8h2c0 5 3 8 7 11l9 10 5 6 7 7a32 32 0 0 0 6 3l14 8c0 4 4 2 7 3l6 3 3 2a18 18 0 0 0 5 2c3 1 7-2 8 3l1 1c9-2 16 7 26 4l6 2 10 3-5 10-4 8-3 6a14 14 0 0 0 0 5c1 5-2 8-6 10l-3 4c-3 2-10-3-12 4h-30l-3-1-10-5c0-4-4-2-6-2l-22-22c1-5-3-7-7-10l-4-6-6-9-6-3c-4-1-6-8-12-6v-1c-2-1-4-3-7-3h-24c-3 0-6 1-6 4s-2 7 3 8l4 4 11 10 2 2c5 1 7 4 8 8l7 10 8 11 1-1c1 3-2 8 4 8 1 3-2 8 4 8 1 3-2 8 4 8-1 10 8 14 13 19s13 10 22 9v1l6 3h63v60c0 5-4 6-7 8a16 16 0 0 1-4 3l-8 2c-2-8-8-3-13-6 0-5-4-3-7-4l-6-3c-2 0-4 0-7-3l-12-5-11-6c-4-2-6-8-11-6l-6-4-8-5c-3-3-5-9-11-7l-7-8-13-8c-4-3-6-7-9-11l-11-9-9-10c-3-3-6-6-7-9-2-6-8-8-11-13h-2c1-7-3-9-8-13 1-6-3-9-8-12 0-3 2-7-5-7 4-6-3-8-4-12-3-5-7-10-7-17l-3-4c-2-2 1-7-4-7-1-4-4-7-4-10 0-8-6-13-5-21l-3-6c-1-5-1-9-4-14-2-3-1-8-1-11l-2-7-2-6v-27l-4-2v36c6 5 3 12 4 17l1 5 3 7 4 20 1 1 7 17 3 7a132 132 0 0 0 21 39c0 3-2 7 3 7 2 8 7 13 13 17v6l6 5 6 5c1 5 3 9 8 11l4 5 10 11 10 9c4 3 7 9 11 10 6 2 8 7 13 10 3 3 6 6 11 7l1 1c3 4 6 7 12 7 1 4 1 4 6 4l5 4c3 2 7 2 8 4 2 5 5 4 8 5a19 19 0 0 0 6 3l4 1c5 3 11 8 18 7 2 7 8 2 12 5l6 3c6 2 12-2 17-5 2-1 6-3 6-7v-67l-8-1h-53c-6 0-11-6-17-5l-1-1-12-8v1l-12-13c-2-2 1-6-5-6-1-4 2-8-4-8-1-4 2-8-4-8-1-4 2-8-4-8 2-6-3-8-6-12l-6-8c-2-3-4-7-6-7-7-1-9-10-16-10l-2-3v-8h24c0 6 5 3 7 5 5 5 9 10 16 11 3 8 7 13 13 17v6l10 9 6 5c3 4 5 9 12 7-1 4 2 4 5 4l5 2 5 2h32l6-3v-1c8 0 8 0 14-5 3-2 6-4 5-9l1-8 4-9 3-4 6-9 2-6-4-2-6-1c-3-1-5-3-8-3h-13c-4-7-11-2-16-5-2-6-9-1-13-4 0-5-4-2-8-3 0-6-4-3-8-4 0-6-4-3-7-5-15-7-24-22-37-32 1-6-3-9-8-12 0-3 2-7-3-7l-2-8-3-8-1-4-3-8-1-7c-3-3-3-7-3-11v-17a39 39 0 0 0-4-1v-28c1-3-2-7 4-9v-4c-2-8 4-16 5-24 0-3 4-6 3-11 6 0 3-5 4-7l4-3c0-8 8-12 13-18 4-5 4-6 0-9-3-5 3-12-5-16v-33l4-5c-2-8 2-16 4-23l3-2 2-4-2 4a75 75 0 0 0 10 0c-1-3-2-4-4-4 2 0 3 1 4 4h14c3 7 9 2 12 5l5 3 13 5c2 1 6 2 6 4 2 5 6 2 9 3 0 6 4 4 7 4 3 3 4 8 9 8 5-1 10 3 13-4h11l5-2 5-2h25a39 39 0 0 0 1-4h-8m8 0-1 4c4-1 9 3 9-4h-8M579 451l4 1c-1-4 3-9-4-9v8m-120 16 4 1v-9l-4-4v8l-4-1v9l4 4v-8m0-4v-23a295 295 0 0 0 1-1c6-2 2-6 3-9l-4 1-4 1v30zm493-208h1zm10 84c-3 0-3 3-3 5l4 3-1-8m-379 75c-6 2-3 6-3 9 6-2 2-6 3-9m120 265c-3 0-4 1-4 4l8 1c0-4-1-5-4-5"/></svg>