<svg xmlns="http://www.w3.org/2000/svg" xml:space="preserve" viewBox="0 0 1600 900"><path fill="#919191" d="M1601 317H653l1 7 947 1v-8m-1004 0v28h8v-20h20v19h8v-15c0-3 1-4 4-4l16-1v-7h-56m36 28h-96a670 670 0 0 1 0 8v24h-28v28h-32v31l1 8 7 1v-32h32v-28h28a670 670 0 0 1 0-8v-24h28l88-1-1-7h-27m968 0H661v7l8 1h932v-8m-1092 0v32h8v-24h19l1-8h-28m64 8h-8v24h-19l-1 8h28v-32m-96 24v28h8v-20h23l1-8zm-28 28v32h8v-24h19l1-8zm28 32h-19l-1 1 1 7 19-1v-7m-20 1-8-1v28h-23l-8 1-1 59a473 473 0 0 1 0 8v28l8-1v-59a473 473 0 0 1 0-8v-20a3527 3527 0 0 1 31-1 518 518 0 0 0 1-34m-40-1 1 28h7v-20h23l1-8zm39 36h-7v20h-23v8a9119 9119 0 0 1 31 0l-1-28m-40 52h-27l1 56h7v-20h20v-8h-20v-20h19v-8m9 36h-8a43575 43575 0 0 0 0 340h8V561m-28 20-7 1a36695 36695 0 0 0-1 319h8V581"/></svg>